HIERARCHY
ROOT hip
{
  OFFSET 0.00112043 5.09927 -9.65472
  CHANNELS 6 Xposition Yposition Zposition Zrotation Xrotation Yrotation
  JOINT abdomen
  {
    OFFSET 0 -1.186 -1.5018
    CHANNELS 3 Zrotation Xrotation Yrotation
    JOINT abdomen2
    {
      OFFSET 0 9.964 0.2134
      CHANNELS 3 Zrotation Xrotation Yrotation
      JOINT chest
      {
        OFFSET 0 13.134 -3.2573
        CHANNELS 3 Zrotation Xrotation Yrotation
        JOINT neck
        {
          OFFSET 0 20.686 -1.6905
          CHANNELS 3 Zrotation Xrotation Yrotation
          JOINT head
          {
            OFFSET 0 7.238 -0.1237
            CHANNELS 3 Zrotation Xrotation Yrotation
            End Site
            {
              OFFSET 0 0 0
            }
          }
        }
        JOINT lCollar
        {
          OFFSET 1.7069 20.075 5.0056
          CHANNELS 3 Zrotation Xrotation Yrotation
          JOINT lShldr
          {
            OFFSET 13.6458 -0.047 -4.849
            CHANNELS 3 Zrotation Xrotation Yrotation
            JOINT lForeArm
            {
              OFFSET 28.3255 -0.9759 2.2888
              CHANNELS 3 Zrotation Xrotation Yrotation
              JOINT lHand
              {
                OFFSET 22.1583 -0.53 10.8316
                CHANNELS 3 Zrotation Xrotation Yrotation
                JOINT lThumb1
                {
                  OFFSET 0.786 0.112 2.5817
                  CHANNELS 3 Zrotation Xrotation Yrotation
                  JOINT lThumb2
                  {
                    OFFSET 0.3601 -0.878 4.2331
                    CHANNELS 3 Zrotation Xrotation Yrotation
                    JOINT lThumb2_End
                    {
                      OFFSET 1.8127 -1.216 2.2227
                      CHANNELS 3 Zrotation Xrotation Yrotation
                      End Site
                      {
                        OFFSET 0.0181 -0.0122 0.0222
                      }
                    }
                  }
                }
                JOINT lCarpal1
                {
                  OFFSET 0.9571 1.114 1.7695
                  CHANNELS 3 Zrotation Xrotation Yrotation
                  JOINT lIndex1
                  {
                    OFFSET 4.1246 0.487 4.1451
                    CHANNELS 3 Zrotation Xrotation Yrotation
                    JOINT lIndex2
                    {
                      OFFSET 3.4052 -1.454 2.7682
                      CHANNELS 3 Zrotation Xrotation Yrotation
                      JOINT lIndex2_End
                      {
                        OFFSET 1.4531 -1.795 1.2713
                        CHANNELS 3 Zrotation Xrotation Yrotation
                        End Site
                        {
                          OFFSET 0.0145 -0.0179 0.0127
                        }
                      }
                    }
                  }
                  JOINT lMid1
                  {
                    OFFSET 5.6954 0.21 2.1184
                    CHANNELS 3 Zrotation Xrotation Yrotation
                    JOINT lMid2
                    {
                      OFFSET 3.9766 -1.54 2.3863
                      CHANNELS 3 Zrotation Xrotation Yrotation
                      JOINT lMid2_End
                      {
                        OFFSET 1.4042 -1.926 1.125
                        CHANNELS 3 Zrotation Xrotation Yrotation
                        End Site
                        {
                          OFFSET 0.014 -0.0193 0.0113
                        }
                      }
                    }
                  }
                }
                JOINT lCarpal2
                {
                  OFFSET 2.0956 0.66 -0.3894
                  CHANNELS 3 Zrotation Xrotation Yrotation
                  JOINT lRing1
                  {
                    OFFSET 5.0395 -0.09 2.4971
                    CHANNELS 3 Zrotation Xrotation Yrotation
                    JOINT lRing2
                    {
                      OFFSET 3.7921 -1.552 1.4806
                      CHANNELS 3 Zrotation Xrotation Yrotation
                      JOINT lRing2_End
                      {
                        OFFSET 1.4655 -1.808 0.9609
                        CHANNELS 3 Zrotation Xrotation Yrotation
                        End Site
                        {
                          OFFSET 0.0147 -0.0181 0.0096
                        }
                      }
                    }
                  }
                  JOINT lPinky1
                  {
                    OFFSET 4.9141 -1.269 0.3591
                    CHANNELS 3 Zrotation Xrotation Yrotation
                    JOINT lPinky2
                    {
                      OFFSET 3.1477 -1.685 0.8462
                      CHANNELS 3 Zrotation Xrotation Yrotation
                      JOINT lPinky2_End
                      {
                        OFFSET 0.8055 -1.585 0.7955
                        CHANNELS 3 Zrotation Xrotation Yrotation
                        End Site
                        {
                          OFFSET 0.0081 -0.0158 0.008
                        }
                      }
                    }
                  }
                }
              }
            }
          }
        }
        JOINT rCollar
        {
          OFFSET -1.7069 20.075 5.0056
          CHANNELS 3 Zrotation Xrotation Yrotation
          JOINT rShldr
          {
            OFFSET -13.6458 -0.047 -4.849
            CHANNELS 3 Zrotation Xrotation Yrotation
            JOINT rForeArm
            {
              OFFSET -28.3255 -0.9759 2.2888
              CHANNELS 3 Zrotation Xrotation Yrotation
              JOINT rHand
              {
                OFFSET -22.1583 -0.53 10.8316
                CHANNELS 3 Zrotation Xrotation Yrotation
                JOINT rThumb1
                {
                  OFFSET -0.786 0.112 2.5817
                  CHANNELS 3 Zrotation Xrotation Yrotation
                  JOINT rThumb2
                  {
                    OFFSET -0.3601 -0.878 4.2331
                    CHANNELS 3 Zrotation Xrotation Yrotation
                    JOINT rThumb2_End
                    {
                      OFFSET -1.8127 -1.216 2.2227
                      CHANNELS 3 Zrotation Xrotation Yrotation
                      End Site
                      {
                        OFFSET -0.0181 -0.0122 0.0222
                      }
                    }
                  }
                }
                JOINT rCarpal1
                {
                  OFFSET -0.9571 1.114 1.7695
                  CHANNELS 3 Zrotation Xrotation Yrotation
                  JOINT rIndex1
                  {
                    OFFSET -4.1246 0.487 4.1451
                    CHANNELS 3 Zrotation Xrotation Yrotation
                    JOINT rIndex2
                    {
                      OFFSET -3.4052 -1.454 2.7682
                      CHANNELS 3 Zrotation Xrotation Yrotation
                      JOINT rIndex2_End
                      {
                        OFFSET -1.4531 -1.795 1.2713
                        CHANNELS 3 Zrotation Xrotation Yrotation
                        End Site
                        {
                          OFFSET -0.0145 -0.018 0.0127
                        }
                      }
                    }
                  }
                  JOINT rMid1
                  {
                    OFFSET -5.6954 0.21 2.1184
                    CHANNELS 3 Zrotation Xrotation Yrotation
                    JOINT rMid2
                    {
                      OFFSET -3.9766 -1.54 2.3863
                      CHANNELS 3 Zrotation Xrotation Yrotation
                      JOINT rMid2_End
                      {
                        OFFSET -1.4042 -1.926 1.125
                        CHANNELS 3 Zrotation Xrotation Yrotation
                        End Site
                        {
                          OFFSET -0.014 -0.0193 0.0113
                        }
                      }
                    }
                  }
                }
                JOINT rCarpal2
                {
                  OFFSET -2.0956 0.66 -0.3894
                  CHANNELS 3 Zrotation Xrotation Yrotation
                  JOINT rRing1
                  {
                    OFFSET -5.0395 -0.09 2.4971
                    CHANNELS 3 Zrotation Xrotation Yrotation
                    JOINT rRing2
                    {
                      OFFSET -3.7921 -1.552 1.4806
                      CHANNELS 3 Zrotation Xrotation Yrotation
                      JOINT rRing2_End
                      {
                        OFFSET -1.4655 -1.808 0.9609
                        CHANNELS 3 Zrotation Xrotation Yrotation
                        End Site
                        {
                          OFFSET -0.0147 -0.0181 0.0096
                        }
                      }
                    }
                  }
                  JOINT rPinky1
                  {
                    OFFSET -4.9141 -1.269 0.3592
                    CHANNELS 3 Zrotation Xrotation Yrotation
                    JOINT rPinky2
                    {
                      OFFSET -3.1477 -1.685 0.8462
                      CHANNELS 3 Zrotation Xrotation Yrotation
                      JOINT rPinky2_End
                      {
                        OFFSET -0.8055 -1.585 0.7955
                        CHANNELS 3 Zrotation Xrotation Yrotation
                        End Site
                        {
                          OFFSET -0.0081 -0.0158 0.008
                        }
                      }
                    }
                  }
                }
              }
            }
          }
        }
      }
    }
  }
  JOINT lThigh
  {
    OFFSET 8.367 -8.2066 0.5982
    CHANNELS 3 Zrotation Xrotation Yrotation
    JOINT lShin
    {
      OFFSET 2.1923 -43.463 -0.4932
      CHANNELS 3 Zrotation Xrotation Yrotation
      JOINT lFoot
      {
        OFFSET 0.7333 -45.8593 -2.6451
        CHANNELS 3 Zrotation Xrotation Yrotation
        End Site
        {
          OFFSET 2.6618 -4.2699 12.3931
        }
      }
    }
  }
  JOINT rThigh
  {
    OFFSET -8.367 -8.2066 0.5982
    CHANNELS 3 Zrotation Xrotation Yrotation
    JOINT rShin
    {
      OFFSET -2.1923 -43.463 -0.4931
      CHANNELS 3 Zrotation Xrotation Yrotation
      JOINT rFoot
      {
        OFFSET -0.7333 -45.8593 -2.6451
        CHANNELS 3 Zrotation Xrotation Yrotation
        End Site
        {
          OFFSET -2.6618 -4.2699 12.3931
        }
      }
    }
  }
}
MOTION
Frames:	5
Frame Time:	0.0333333
0 91.7903 2.51682 0 0 -0 0 0 -0 0 0 -0 0 0 -0 0 0 -0 0 0 -0 0 0 -0 1.66051 0.0835086 5.75766 -0.0175111 0.895433 15.7816 7.95139e-016 -1.98785e-016 -0 5.46658e-016 -3.97569e-016 -0 5.96354e-016 0 -0 3.97569e-016 1.98785e-016 9.54166e-015 1.49089e-016 -3.97569e-016 -0 6.4605e-016 0 3.18055e-015 5.96354e-016 0 3.18055e-015 8.94531e-016 -1.98785e-016 6.36111e-015 6.4605e-016 0 3.18055e-015 5.96354e-016 0 3.18055e-015 8.94531e-016 -1.98785e-016 6.36111e-015 1.49089e-016 -3.97569e-016 -0 6.4605e-016 0 3.18055e-015 5.96354e-016 0 3.18055e-015 8.94531e-016 -1.98785e-016 6.36111e-015 6.4605e-016 0 3.18055e-015 5.96354e-016 0 3.18055e-015 8.94531e-016 -1.98785e-016 6.36111e-015 0 0 -0 -1.4496 0.0636048 -5.0245 -1.74811 1.20616 -16.8394 -1.19271e-015 1.98785e-016 -3.18055e-015 -3.97569e-016 1.98785e-016 -3.18055e-015 -2.98177e-016 1.98785e-016 -3.18055e-015 -2.98177e-016 3.97569e-016 -0 4.96962e-016 0 -6.36111e-015 -9.93923e-017 3.97569e-016 -0 -8.94531e-016 5.96354e-016 -0 -3.97569e-016 3.97569e-016 -0 -9.93923e-017 3.97569e-016 -0 -8.94531e-016 5.96354e-016 -0 -3.97569e-016 3.97569e-016 -0 4.96962e-016 0 -6.36111e-015 -9.93923e-017 3.97569e-016 -0 -8.94531e-016 5.96354e-016 -0 -3.97569e-016 3.97569e-016 -0 -9.93923e-017 3.97569e-016 -0 -8.94531e-016 5.96354e-016 -0 -3.97569e-016 3.97569e-016 -0 -4.66111 -0.998717 0.12318 0.00986924 1.54847 0.176523 4.65186 -0.572283 -0.254274 4.66111 -0.998765 -0.123176 -0.00986867 1.54869 -0.176537 -4.65186 -0.572453 0.25427 
1.50106 80.328 -5.8214 0 0 -0 -0.00224073 0.293088 -0.0159023 -0.0044002 0.586177 -0.0317937 -0.0044002 0.586177 -0.0317937 -0.0103693 -0.00112755 -0.0291743 1.75262e-009 2.86906e-012 -6.64825e-009 -1.4264 -0.034429 -6.81514e-006 -2.58284 -0.197507 -1.18878 -1.67133 -10.641 13.2781 -1.16038 0.458226 -0.0165407 -0 0 6.36111e-015 4.37326e-015 0 3.18055e-015 1.59028e-015 -3.18055e-015 1.59028e-015 -1.59028e-015 1.59028e-015 4.77083e-015 2.78299e-015 0 7.95139e-015 3.97569e-015 0 1.59028e-015 3.57812e-015 -3.18055e-015 -0 2.78299e-015 0 7.95139e-015 3.97569e-015 0 1.59028e-015 3.57812e-015 -3.18055e-015 -0 -1.59028e-015 1.59028e-015 4.77083e-015 2.78299e-015 0 7.95139e-015 3.97569e-015 0 1.59028e-015 3.57812e-015 -3.18055e-015 -0 2.78299e-015 0 7.95139e-015 3.97569e-015 0 1.59028e-015 3.57812e-015 -3.18055e-015 -0 1.42577 -0.0344738 -1.8374e-005 2.79378 -0.192182 1.92227 -1.79785 1.05585 -14.1698 1.15699 0.464514 0.026176 -5.96354e-016 -7.95139e-016 3.18055e-015 -1.09332e-015 0 3.18055e-015 1.10348e-032 -3.97569e-016 1.59028e-015 -5.96354e-016 -3.97569e-016 3.18055e-015 -9.93923e-016 0 1.11319e-014 -4.96962e-016 -7.95139e-016 3.18055e-015 -3.97569e-016 -7.95139e-016 3.18055e-015 -9.93923e-016 0 1.11319e-014 -4.96962e-016 -7.95139e-016 3.18055e-015 -3.97569e-016 -7.95139e-016 3.18055e-015 -5.96354e-016 -3.97569e-016 3.18055e-015 -9.93923e-016 0 1.11319e-014 -4.96962e-016 -7.95139e-016 3.18055e-015 -3.97569e-016 -7.95139e-016 3.18055e-015 -9.93923e-016 0 1.11319e-014 -4.96962e-016 -7.95139e-016 3.18055e-015 -3.97569e-016 -7.95139e-016 3.18055e-015 -3.87623 -10.583 1.30058 -0.610061 26.4077 1.08118 6.28465 10.9672 -0.393954 3.87578 -10.6145 -1.29984 0.609342 26.4392 -1.08286 -6.28548 10.9672 0.393715 
3.11907 67.5415 -14.8924 0 0 -0 -0.00407131 0.609119 -0.0331102 -0.00779124 1.21824 -0.0661828 -0.00779123 1.21824 -0.0661828 -0.0331824 -0.00435999 -0.0933144 8.33701e-009 -4.26707e-007 -2.67059e-008 -2.96395 -0.0720831 1.78942e-007 -7.20548 -0.494361 -8.67685 -4.79421 -22.8655 9.93834 -2.41115 0.952428 -0.0239784 3.72721e-016 0 -2.93207e-015 1.49089e-016 6.36111e-015 2.98177e-016 1.49089e-016 0 2.98177e-016 4.96962e-016 -3.18055e-015 -2.5842e-015 -4.09993e-015 6.36111e-015 8.10048e-015 5.91384e-015 0 8.44835e-016 2.93207e-015 -3.18055e-015 -9.93923e-016 -4.09993e-015 6.36111e-015 8.10048e-015 5.91384e-015 0 8.44835e-016 2.93207e-015 -3.18055e-015 -9.93923e-016 4.96962e-016 -3.18055e-015 -2.5842e-015 -4.09993e-015 6.36111e-015 8.10048e-015 5.91384e-015 0 8.44835e-016 2.93207e-015 -3.18055e-015 -9.93923e-016 -4.09993e-015 6.36111e-015 8.10048e-015 5.91384e-015 0 8.44835e-016 2.93207e-015 -3.18055e-015 -9.93923e-016 2.96265 -0.0721733 6.23707e-006 7.41309 -0.461925 9.41065 -1.84355 0.891436 -11.2925 2.40401 0.965701 0.0438889 -8.22276e-009 4.2465e-007 -4.00211e-008 -8.22276e-009 4.2465e-007 -4.00211e-008 -1.68967e-015 0 -3.97569e-016 1.73937e-015 0 -0 -8.22276e-009 4.2465e-007 -4.00211e-008 -8.22276e-009 4.2465e-007 -4.00211e-008 -2.31087e-015 -7.95139e-016 3.97569e-016 -8.22276e-009 4.2465e-007 -4.00211e-008 -8.22276e-009 4.2465e-007 -4.00211e-008 -2.31087e-015 -7.95139e-016 3.97569e-016 1.73937e-015 0 -0 -8.22276e-009 4.2465e-007 -4.00211e-008 -8.22276e-009 4.2465e-007 -4.00211e-008 -2.31087e-015 -7.95139e-016 3.97569e-016 -8.22276e-009 4.2465e-007 -4.00211e-008 -8.22276e-009 4.2465e-007 -4.00211e-008 -2.31087e-015 -7.95139e-016 3.97569e-016 -2.91302 -21.2425 2.77443 -0.348821 53.7092 0.245266 7.638 23.4031 0.807098 2.91181 -21.2426 -2.77624 0.346069 53.7092 -0.243845 -7.63969 23.4031 -0.807593 
4.73705 54.4077 -24.1134 0 0 -0 -0.00529213 0.925063 -0.0503738 -0.00977262 1.85013 -0.100682 -0.00977262 1.85013 -0.100682 -0.0560012 -0.00727747 -0.157476 7.73957e-009 4.48363e-011 -2.63899e-008 -4.50149 -0.109326 1.44158e-006 -11.877 -0.77717 -16.1658 -9.80104 -34.7126 5.32605 -3.66208 1.44667 -0.0206215 -5.05055e-007 3.66307e-006 -5.53418e-007 9.15688e-007 -4.17432e-006 2.12933e-006 -5.05055e-007 3.66307e-006 -5.53418e-007 6.36111e-015 3.18055e-015 -0 -5.05055e-007 3.66307e-006 -5.53418e-007 9.15688e-007 -4.17432e-006 2.12933e-006 -5.05055e-007 3.66307e-006 -5.53418e-007 -5.05055e-007 3.66307e-006 -5.53418e-007 9.15688e-007 -4.17432e-006 2.12933e-006 -5.05055e-007 3.66307e-006 -5.53418e-007 6.36111e-015 3.18055e-015 -0 -5.05055e-007 3.66307e-006 -5.53418e-007 9.15688e-007 -4.17432e-006 2.12933e-006 -5.05055e-007 3.66307e-006 -5.53418e-007 -5.05055e-007 3.66307e-006 -5.53418e-007 9.15688e-007 -4.17432e-006 2.12933e-006 -5.05055e-007 3.66307e-006 -5.53418e-007 4.49953 -0.109465 -8.16429e-006 12.0778 -0.71814 16.8998 -1.88094 0.724929 -8.41541 3.65112 1.46716 0.0506831 -2.88238e-015 -7.95139e-016 3.18055e-015 -2.98177e-015 -7.95139e-016 3.97569e-015 -2.68359e-015 -1.59028e-015 2.38542e-015 -6.06293e-015 7.95139e-016 2.38542e-015 -3.77691e-015 0 9.54166e-015 6.06293e-015 -2.38542e-015 1.59028e-015 2.98177e-015 -2.38542e-015 7.95139e-016 -3.77691e-015 0 9.54166e-015 6.06293e-015 -2.38542e-015 1.59028e-015 2.98177e-015 -2.38542e-015 7.95139e-016 -6.06293e-015 7.95139e-016 2.38542e-015 -3.77691e-015 0 9.54166e-015 6.06293e-015 -2.38542e-015 1.59028e-015 2.98177e-015 -2.38542e-015 7.95139e-016 -3.77691e-015 0 9.54166e-015 6.06293e-015 -2.38542e-015 1.59028e-015 2.98177e-015 -2.38542e-015 7.95139e-016 -1.7216 -32.1495 4.76423 7.81602 81.0444 -7.38045 8.80251 35.9206 1.58684 1.71894 -32.1467 -4.76749 -7.82429 81.0412 7.38673 -8.80497 35.9206 -1.58757 
6.23804 42.0542 -32.8312 0 0 -0 -0.00587866 1.21819 -0.0664421 -0.0103475 2.43639 -0.132804 -0.0103475 2.43639 -0.132804 -0.0663756 -0.00867727 -0.186637 -1.44856e-008 4.90161e-007 -2.28259e-008 -5.92789 -0.144019 1.54664e-006 -16.2521 -1.02032 -23.1144 -17.0121 -45.1125 -1.02439 -4.82288 1.90504 -0.00785372 1.27222e-014 6.36111e-015 9.54166e-015 -3.44294e-006 4.6816e-007 -3.88863e-007 1.59028e-015 6.36111e-015 3.18055e-015 4.77083e-015 3.18055e-015 6.36111e-015 -3.18055e-015 0 1.59028e-014 -3.44294e-006 4.6816e-007 -3.88863e-007 -3.18055e-015 -6.36111e-015 -9.54166e-015 -3.18055e-015 0 1.59028e-014 -3.44294e-006 4.6816e-007 -3.88863e-007 -3.18055e-015 -6.36111e-015 -9.54166e-015 4.77083e-015 3.18055e-015 6.36111e-015 -3.18055e-015 0 1.59028e-014 -3.44294e-006 4.6816e-007 -3.88863e-007 -3.18055e-015 -6.36111e-015 -9.54166e-015 -3.18055e-015 0 1.59028e-014 -3.44294e-006 4.6816e-007 -3.88863e-007 -3.18055e-015 -6.36111e-015 -9.54166e-015 5.9253 -0.1442 -4.89273e-006 16.4437 -0.937467 23.8484 -1.90811 0.568963 -5.74651 4.80832 1.93239 0.0472206 2.10876e-007 -8.53167e-007 -2.57176e-006 2.88999e-008 9.29389e-007 -9.08849e-007 3.33788e-007 -2.97162e-008 -2.75857e-006 -1.59028e-015 -7.95139e-016 -0 2.10876e-007 -8.53167e-007 -2.57176e-006 2.88999e-008 9.29389e-007 -9.08849e-007 3.33788e-007 -2.97162e-008 -2.75857e-006 2.10876e-007 -8.53167e-007 -2.57176e-006 2.88999e-008 9.29389e-007 -9.08849e-007 3.33788e-007 -2.97162e-008 -2.75857e-006 -1.59028e-015 -7.95139e-016 -0 2.10876e-007 -8.53167e-007 -2.57176e-006 2.88999e-008 9.29389e-007 -9.08849e-007 3.33788e-007 -2.97162e-008 -2.75857e-006 2.10876e-007 -8.53167e-007 -2.57176e-006 2.88999e-008 9.29389e-007 -9.08849e-007 3.33788e-007 -2.97162e-008 -2.75857e-006 -0.338985 -42.7163 7.66623 168.778 73.1053 -167.126 9.24619 48.0285 2.93445 0.334875 -42.7178 -7.6706 -168.778 73.1041 167.121 -9.24948 48.0285 -2.93534 
